<svg width="116" height="38" viewBox="0 0 116 38" fill="none" xmlns="http://www.w3.org/2000/svg">
<path d="M14.8442 0H15.8661C19.4137 0.0771225 22.9035 1.50389 25.41 4.02965C24.4845 4.9744 23.5397 5.88059 22.6336 6.82534C21.2261 5.55282 19.5294 4.56951 17.6784 4.22246C14.9406 3.64404 11.9907 4.16461 9.69626 5.72635C7.18978 7.3652 5.49309 10.1416 5.12675 13.1108C4.72186 16.0415 5.55093 19.1264 7.45971 21.4015C9.29137 23.6188 12.0871 25.007 14.9792 25.1034C17.6784 25.2576 20.4934 24.4285 22.46 22.539C24.0025 21.2087 24.7159 19.1842 24.9472 17.2176C21.7467 17.2176 18.5461 17.2369 15.3455 17.2176V13.2458H28.8226C29.5167 17.5068 28.5141 22.3077 25.275 25.354C23.1156 27.5134 20.1271 28.786 17.0807 29.0366C14.1308 29.3258 11.0845 28.7667 8.4623 27.3399C5.31956 25.6625 2.81308 22.8283 1.57912 19.4927C0.422283 16.4271 0.403002 12.9566 1.48272 9.87168C2.46603 7.05671 4.35553 4.56951 6.78489 2.83425C9.11784 1.11828 11.9521 0.173526 14.8442 0Z" fill="#3580FF"/>
<path d="M92.1602 1.00256H96.2862V28.5353C94.9173 28.5353 93.5291 28.5546 92.1602 28.516C92.1794 19.3577 92.1602 10.1801 92.1602 1.00256V1.00256Z" fill="#33A853"/>
<path d="M37.9999 10.5465C40.545 10.0644 43.3021 10.6043 45.4037 12.1275C47.3125 13.4771 48.6428 15.598 49.0477 17.9117C49.5683 20.5917 48.9128 23.5223 47.1775 25.6432C45.3073 28.0147 42.2417 29.2872 39.2532 29.0944C36.5153 28.9402 33.8546 27.5712 32.235 25.3347C30.4034 22.8668 29.9599 19.4734 30.9625 16.5813C31.9651 13.4771 34.7993 11.1056 37.9999 10.5465V10.5465ZM38.5784 14.2098C37.5372 14.4797 36.5732 15.0774 35.8791 15.9258C34.0088 18.1623 34.1245 21.8063 36.1876 23.8887C37.3637 25.0841 39.1375 25.6432 40.7763 25.3154C42.2995 25.0455 43.6299 24.0236 44.3625 22.674C45.6351 20.3796 45.2687 17.2176 43.3214 15.4245C42.0681 14.2676 40.2365 13.7856 38.5784 14.2098Z" fill="#F84233"/>
<path d="M58.437 10.5464C61.3484 9.98728 64.5297 10.7971 66.7084 12.8408C70.256 16.0221 70.6416 21.9798 67.6146 25.6431C65.7829 27.9568 62.8137 29.2293 59.883 29.0944C57.0873 29.0173 54.3302 27.629 52.6721 25.3347C50.8019 22.8089 50.397 19.3384 51.4574 16.3884C52.5178 13.3807 55.2942 11.0863 58.437 10.5464V10.5464ZM59.0154 14.2097C57.9743 14.4797 57.0102 15.0774 56.3161 15.9064C54.4652 18.1044 54.5423 21.6906 56.5282 23.7922C57.7043 25.0454 59.536 25.6624 61.2327 25.3154C62.7366 25.0262 64.0862 24.0236 64.8189 22.6739C66.0721 20.3603 65.7058 17.1982 63.7392 15.4051C62.4859 14.2483 60.6543 13.7856 59.0154 14.2097Z" fill="#FFC00A"/>
<path d="M75.7718 11.6647C77.9891 10.2765 80.939 9.89092 83.3298 11.0863C84.0818 11.4141 84.6988 11.9732 85.2965 12.5324C85.3157 12.0118 85.2965 11.4719 85.3157 10.9321C86.6075 10.9514 87.8993 10.9321 89.2104 10.9514V27.9569C89.1911 30.5212 88.5356 33.2398 86.6847 35.11C84.6602 37.173 81.556 37.8093 78.7603 37.3851C75.7718 36.9416 73.1689 34.7629 72.0121 32.0058C73.1689 31.4467 74.3836 31.0032 75.579 30.4826C76.2538 32.0636 77.6228 33.4133 79.3387 33.7218C81.0547 34.0303 83.0406 33.6061 84.1589 32.1793C85.3543 30.714 85.3543 28.7088 85.2965 26.9157C84.4095 27.7833 83.3877 28.5546 82.1537 28.8438C79.4737 29.5957 76.5238 28.6703 74.4607 26.8579C72.3784 25.0455 71.1445 22.2498 71.2602 19.4734C71.318 16.3307 73.0918 13.3036 75.7718 11.6647V11.6647ZM79.7629 14.1327C78.5868 14.3255 77.4878 14.981 76.7359 15.8872C74.9235 18.0466 74.9235 21.4979 76.7551 23.6187C77.7963 24.872 79.4737 25.5661 81.0933 25.3925C82.6165 25.2383 84.0239 24.2743 84.7759 22.9439C86.0484 20.6881 85.8363 17.6225 84.1203 15.6558C83.0599 14.4412 81.3632 13.8435 79.7629 14.1327V14.1327Z" fill="#3580FF"/>
<path d="M101.24 12.6481C103.554 10.4886 107.121 9.75597 110.09 10.8935C112.905 11.954 114.698 14.634 115.605 17.3911C111.421 19.1264 107.256 20.8423 103.072 22.5776C103.651 23.6766 104.537 24.6792 105.733 25.0841C107.41 25.6818 109.415 25.4697 110.823 24.3514C111.382 23.9272 111.826 23.3681 112.25 22.8282C113.31 23.5416 114.371 24.2357 115.431 24.9491C113.927 27.2049 111.401 28.7859 108.683 29.0366C105.675 29.4029 102.474 28.2461 100.527 25.8939C97.3265 22.192 97.635 15.9836 101.24 12.6481V12.6481ZM103.304 16.215C102.648 17.1597 102.378 18.3166 102.397 19.4541C105.193 18.2973 107.989 17.1405 110.784 15.9643C110.322 14.8846 109.203 14.2291 108.066 14.0556C106.234 13.7278 104.325 14.7111 103.304 16.215V16.215Z" fill="#F84233"/>
</svg>
